<?xml version="1.0" encoding="UTF-8" standalone="no"?>
<!-- Created with Inkscape (http://www.inkscape.org/) -->

<svg
   width="290.05109"
   height="96.689697"
   viewBox="0 0 76.742683 25.582482"
   version="1.1"
   id="svg1"
   xml:space="preserve"
   sodipodi:docname="pwnbay.svg"
   inkscape:version="1.4.1 (93de688d07, 2025-03-30)"
   xmlns:inkscape="http://www.inkscape.org/namespaces/inkscape"
   xmlns:sodipodi="http://sodipodi.sourceforge.net/DTD/sodipodi-0.dtd"
   xmlns="http://www.w3.org/2000/svg"
   xmlns:svg="http://www.w3.org/2000/svg"><sodipodi:namedview
     id="namedview1"
     pagecolor="#111827"
     bordercolor="#000000"
     borderopacity="0.25"
     inkscape:showpageshadow="2"
     inkscape:pageopacity="0.0"
     inkscape:pagecheckerboard="0"
     inkscape:deskcolor="#d1d1d1"
     inkscape:zoom="2.1349705"
     inkscape:cx="111.00856"
     inkscape:cy="136.06745"
     inkscape:window-width="1876"
     inkscape:window-height="1052"
     inkscape:window-x="0"
     inkscape:window-y="0"
     inkscape:window-maximized="1"
     inkscape:current-layer="g2" /><defs
     id="defs1" /><g
     id="layer1"
     transform="translate(-186.18449,-189.10798)"><g
       id="g1"
       transform="matrix(4.6628645,0,0,4.6628645,52.647634,-384.89155)"><g
         id="g2"
         transform="matrix(0.48611548,0,0,0.48611548,18.321722,64.779813)"><path
           id="path1-0"
           style="fill:#c0ffff;fill-opacity:1;stroke-width:0.159177"
           d="m 25.875679,130.30178 c 0,0 -0.133287,-0.22487 -0.164505,-0.40665 -0.02505,-0.14586 -0.01957,-0.23717 -0.07581,-0.361 -0.09741,-0.21449 -0.205915,-0.25013 -0.287496,-0.27238 -0.08659,-0.0693 -0.361223,0.38578 -0.51037,0.3711 -0.04449,-0.004 -0.302177,-0.17578 -0.44593,-0.34158 -0.118896,-0.13713 -0.208142,-0.31691 -0.289093,-0.392 -0.16047,-0.14884 -0.47624,-0.47989 -0.644038,-0.62185 -0.368625,-0.31186 -0.606981,-0.4099 -0.7169,-0.50803 -0.08492,-0.0758 -0.121162,-0.15857 -0.148617,-0.23478 -0.03562,-0.0989 -0.07387,-0.21442 -0.132192,-0.29888 -0.483081,-0.69964 -1.238094,-1.8463 -1.238094,-1.8463 l 0.346247,-0.412 c 0,0 0.930374,-1.11639 1.338387,-1.73104 0.408012,-0.61465 1.1003,-1.94928 1.1003,-1.94928 l 1.412431,1.42018 c 0,0 0.704309,-0.91257 0.981705,-1.3725 0.277397,-0.45994 0.687775,-1.37251 0.687775,-1.37251 l 0.340341,0.43331 c 0,0 1.142764,1.88585 1.67144,2.64874 0.292407,0.42195 0.706673,0.93831 1.008208,1.34231 0.06709,0.0899 0.09424,0.19877 0.151956,0.27213 0.151902,0.19306 0.312935,0.327 0.312935,0.327 l 0.517065,0.33097 -0.452343,0.9375 c 0,0 -0.122528,0.25862 -0.21788,0.4209 -0.01318,0.0224 -0.02389,0.0602 -0.03177,0.0812 -0.0097,0.0259 -0.02534,0.10973 -0.03386,0.18705 -0.006,0.0542 -0.02938,0.12966 -0.04744,0.16166 -0.02784,0.0493 -0.122242,0.14732 -0.143161,0.20107 -0.03441,0.0884 -0.0342,0.41627 -0.06892,0.50268 -0.149998,0.37335 -0.219728,0.38336 -0.286489,0.44949 -0.168147,0.16656 -0.636985,0.0628 -1.00732,0.20854 -0.370335,0.14573 -0.728913,0.25708 -1.16181,0.70538 -0.432897,0.4483 -0.955479,2.07634 -1.163298,2.07634 -0.155864,-0.0173 -0.440486,-0.62997 -0.601452,-0.95675 -0.08323,-0.16896 0,0 0,0 z m -0.581732,-5.56502 -0.757687,0.1105 -0.56965,-1.21697 0.0024,-0.5069 0.07574,-0.77299 -0.313691,0.45203 -1.556139,2.38923 3.119063,-0.45491 0.752819,0.16854 1.100151,-0.3658 2.815781,0.9148 -3.430449,-2.35627 -0.03462,-0.62115 1.135676,0.72418 0.278585,-1.10627 -0.530285,-0.54035 -0.256479,-0.75457 -1.172992,1.9614 0.0024,0.39752 0.543112,-0.68191 0.03462,0.62115 z" /><path
           d="m 36.535029,124.71199 q 0,0.0697 -0.02324,0.10958 -0.02324,0.0365 -0.03985,0.0996 -0.03321,0.14611 -0.05977,0.33206 -0.02324,0.18263 -0.06973,0.3553 -0.04317,0.16935 -0.126182,0.30217 -0.07969,0.12951 -0.225799,0.16603 -0.03653,0.01 -0.09298,0.0133 -0.05313,0.003 -0.119541,0.007 -0.06309,0.003 -0.132823,0.01 -0.06973,0.003 -0.136143,0.0133 -0.0963,0.0166 -0.175991,0.0465 -0.07637,0.0299 -0.139464,0.0399 -0.05313,0.007 -0.126182,0.01 -0.07305,0 -0.139464,0.003 -0.06309,0 -0.109579,0.01 -0.04649,0.007 -0.04649,0.0266 0,0.14943 0.02656,0.31546 0.02656,0.16271 0.05645,0.32874 0.02989,0.1627 0.05645,0.32209 0.02656,0.15607 0.02656,0.29553 0,0.0365 -0.0066,0.083 -0.0033,0.0465 -0.01992,0.0963 -0.01328,0.0498 -0.04317,0.0996 -0.02656,0.0498 -0.07305,0.0897 -0.04317,0.0299 -0.119541,0.0332 -0.07637,0.007 -0.152746,0.0498 -0.03321,0.0166 -0.05313,0.0399 -0.0166,0.0232 -0.03985,0.0432 -0.01992,0.0232 -0.04981,0.0365 -0.02989,0.0166 -0.08966,0.0166 -0.04981,0 -0.08633,-0.0133 -0.03653,-0.0133 -0.06973,-0.0332 -0.03321,-0.0166 -0.06641,-0.0365 -0.02989,-0.0199 -0.06973,-0.0332 -0.08633,-0.0299 -0.162709,-0.0498 -0.07637,-0.0166 -0.136143,-0.0498 -0.05977,-0.0299 -0.0963,-0.0897 -0.03321,-0.0565 -0.03321,-0.17267 0,-0.0598 0.01328,-0.1295 0.01328,-0.0697 0.01328,-0.13614 0,-0.15939 -0.01992,-0.29886 -0.01992,-0.14278 -0.01992,-0.22912 0,-0.0398 0.01992,-0.093 0.02324,-0.0564 0.04981,-0.1129 0.02656,-0.0564 0.04649,-0.10626 0.02324,-0.0498 0.02657,-0.083 0.0066,-0.0432 0.01,-0.0797 0.0033,-0.0365 0.0033,-0.0764 0,-0.0897 -0.01328,-0.17931 -0.01,-0.0897 -0.02657,-0.17599 -0.01328,-0.0863 -0.02656,-0.16935 -0.01,-0.083 -0.01,-0.16271 0,-0.2258 0.01,-0.4682 0.01328,-0.24572 0.02324,-0.49477 0.01328,-0.25236 0.02324,-0.50805 0.01328,-0.259 0.01328,-0.51468 0,-0.0564 -0.01,-0.0897 -0.0066,-0.0332 -0.04317,-0.0332 -0.02989,0 -0.06973,0.01 -0.03653,0.01 -0.08301,0.0199 -0.04317,0.01 -0.08633,0.0199 -0.04317,0.01 -0.08301,0.01 -0.03321,0 -0.04649,-0.007 -0.01328,-0.003 -0.04317,-0.0199 -0.02656,-0.0166 -0.05645,-0.0399 -0.02656,-0.0232 -0.04649,-0.0498 -0.02324,-0.0299 -0.02324,-0.0598 0,-0.0398 0.02656,-0.0896 0.02324,-0.0498 0.03321,-0.0996 0.01992,-0.0764 0.01328,-0.12286 -0.0033,-0.0465 0.02656,-0.0897 0.02656,-0.0266 0.07305,-0.0432 0.04981,-0.0199 0.102938,-0.0299 0.05313,-0.0133 0.102938,-0.0166 0.05313,-0.007 0.08301,-0.01 0.192594,-0.0199 0.441637,-0.0199 0.159388,0 0.325416,0.01 0.16935,0.007 0.328737,0.0233 0.162709,0.0133 0.312135,0.0365 0.149426,0.0232 0.272287,0.0498 0.126182,0.0299 0.239081,0.093 0.1129,0.0631 0.212517,0.14943 0.09962,0.083 0.189273,0.18263 0.08966,0.0963 0.175991,0.18927 0.04317,0.0498 0.08301,0.093 0.03985,0.0432 0.06973,0.083 0.03321,0.0365 0.04981,0.0764 0.01992,0.0399 0.01992,0.0863 v 0.0764 q 0,0.0531 0.01328,0.0863 0.01328,0.0332 0.02989,0.0598 0.0166,0.0232 0.03653,0.0498 0.01992,0.0232 0.03653,0.0598 0.01,0.0332 0.0066,0.0863 -0.0033,0.0531 0.01328,0.0996 0.02656,0.093 0.06309,0.15275 0.03985,0.0564 0.03985,0.11954 z m -1.14892,-0.10294 q 0,-0.0299 -0.02656,-0.0897 -0.02324,-0.0631 -0.02324,-0.14942 v -0.13615 q 0,-0.1627 -0.04649,-0.29553 -0.04317,-0.13282 -0.116221,-0.2258 -0.06973,-0.0963 -0.159387,-0.1461 -0.08633,-0.0531 -0.17267,-0.0531 -0.05313,0 -0.102938,0.007 -0.04649,0.007 -0.109579,0.007 -0.03985,0 -0.08966,-0.007 -0.04649,-0.007 -0.09962,-0.0266 0.0033,0.0365 0.0066,0.13282 0.0066,0.0963 0.01328,0.23244 0.0066,0.13614 0.0166,0.29885 0.01,0.15939 0.01992,0.3221 0.01,0.1627 0.01992,0.31545 0.01,0.15275 0.01992,0.26897 0.01,0.11622 0.01992,0.18927 0.01,0.0697 0.01992,0.0697 0.03985,0 0.07305,-0.01 0.03653,-0.0133 0.06641,-0.0299 0.03321,-0.0166 0.06641,-0.0332 0.03321,-0.0166 0.07305,-0.0299 0.03985,-0.0133 0.08966,-0.0199 0.04981,-0.007 0.09962,-0.0166 0.04981,-0.01 0.09298,-0.0266 0.04649,-0.0166 0.07969,-0.0465 0.03985,-0.0399 0.04317,-0.11955 0.0066,-0.0797 0.03653,-0.19259 0.0166,-0.0564 0.04981,-0.10294 0.03321,-0.0498 0.03985,-0.0863 z m 5.485592,-0.435 q 0,0.0598 -0.02324,0.11622 -0.01992,0.0531 -0.03653,0.13615 -0.01992,0.0963 -0.03321,0.22912 -0.01328,0.1295 -0.03653,0.27228 -0.01,0.0731 -0.02656,0.13283 -0.0166,0.0598 -0.03321,0.11622 -0.01328,0.0565 -0.02324,0.11622 -0.01,0.0564 -0.01,0.12618 0,0.0697 -0.01328,0.11954 -0.01,0.0498 -0.02656,0.093 -0.01328,0.0432 -0.02656,0.083 -0.01,0.0399 -0.01,0.0897 0,0.0332 0.0033,0.0631 0.0033,0.0299 0.0033,0.0598 0,0.0897 -0.02656,0.17267 -0.02324,0.0797 -0.05645,0.15606 -0.02989,0.0731 -0.05645,0.14611 -0.02324,0.0697 -0.02324,0.13946 0,0.0365 0.0033,0.0697 0.0033,0.0332 0.0033,0.0664 0,0.13946 -0.04317,0.21583 -0.04317,0.0764 -0.11622,0.11623 -0.07305,0.0365 -0.166029,0.0531 -0.09298,0.0133 -0.192594,0.0266 -0.06973,0.0133 -0.159387,0.0299 -0.08633,0.0133 -0.17267,0.0133 -0.126182,0 -0.205876,-0.0631 -0.07637,-0.0664 -0.156067,-0.19924 -0.07969,-0.13282 -0.189273,-0.33206 -0.106258,-0.20255 -0.29221,-0.47484 -0.06309,0.0764 -0.0963,0.16603 -0.02989,0.0897 -0.04981,0.18927 -0.01992,0.0996 -0.03653,0.21252 -0.0166,0.10958 -0.04981,0.22912 -0.0066,0.0266 -0.02989,0.0498 -0.02324,0.0232 -0.02989,0.0598 -0.0166,0.0465 -0.03653,0.0996 -0.01992,0.0531 -0.05977,0.10293 -0.03653,0.0465 -0.09962,0.0797 -0.06309,0.0299 -0.162708,0.0299 -0.05645,0 -0.126182,-0.01 -0.06973,-0.01 -0.175991,-0.01 -0.06641,0 -0.119541,0.007 -0.04981,0.007 -0.0963,0.007 -0.06641,0 -0.0963,-0.0232 -0.02656,-0.0232 -0.03985,-0.0697 -0.01328,-0.0465 -0.02324,-0.11623 -0.01,-0.0697 -0.03985,-0.16602 -0.02656,-0.083 -0.06309,-0.15275 -0.03653,-0.0731 -0.05645,-0.13946 -0.02656,-0.0797 -0.04317,-0.16603 -0.0166,-0.0897 -0.03321,-0.17599 -0.01328,-0.0897 -0.02989,-0.17267 -0.0166,-0.083 -0.04317,-0.15939 -0.03653,-0.0863 -0.09298,-0.13615 -0.05313,-0.0531 -0.07969,-0.11289 -0.02657,-0.0631 -0.05313,-0.14611 -0.02324,-0.083 -0.04649,-0.17267 -0.02324,-0.0897 -0.04981,-0.17931 -0.02656,-0.093 -0.05977,-0.17599 -0.01,-0.0266 -0.02989,-0.073 -0.01992,-0.0465 -0.03985,-0.10294 -0.0166,-0.0564 -0.03321,-0.11622 -0.01328,-0.0631 -0.01328,-0.12286 0,-0.10294 0.04981,-0.15607 0.05313,-0.0531 0.129502,-0.083 0.07637,-0.0299 0.166029,-0.0465 0.09298,-0.0199 0.17267,-0.0564 0.08966,-0.0399 0.142785,-0.0797 0.05645,-0.0432 0.109579,-0.0764 0.05313,-0.0365 0.11954,-0.0564 0.06641,-0.0232 0.17267,-0.0232 0.116221,0 0.182632,0.0166 0.06973,0.0133 0.102938,0.0465 0.03321,0.0332 0.03985,0.0863 0.01,0.0498 0.01,0.12286 0.0033,0.0697 0.0033,0.16271 0,0.0897 0.01992,0.20256 0.03653,0.20587 0.06973,0.41839 0.03321,0.2092 0.05313,0.39847 0.08301,-0.0631 0.129502,-0.16603 0.04649,-0.10294 0.07637,-0.21584 0.02989,-0.11622 0.05977,-0.23244 0.03321,-0.11622 0.08966,-0.20919 0.05645,-0.093 0.149426,-0.14943 0.0963,-0.0598 0.255684,-0.0598 0.102938,0 0.17267,0.0598 0.07305,0.0564 0.126182,0.14278 0.05313,0.083 0.0963,0.18596 0.04317,0.0996 0.08966,0.18263 0.09298,0.17267 0.182632,0.31877 0.09298,0.14611 0.189273,0.27229 0.02656,-0.16603 0.0332,-0.32542 0.01,-0.1627 0.01,-0.32873 0,-0.0664 -0.0033,-0.13283 -0.0033,-0.0664 -0.0033,-0.13282 0,-0.15939 0,-0.3387 0,-0.18263 0.02656,-0.3387 0.02657,-0.15606 0.09298,-0.259 0.06641,-0.10294 0.199234,-0.10294 0.06309,0 0.142785,0.0133 0.07969,0.0133 0.156067,0.0332 0.07969,0.0166 0.139464,0.0399 0.06309,0.0232 0.09298,0.0432 0.01328,0.0133 0.04981,0.0631 0.03985,0.0465 0.07637,0.10958 0.03985,0.0631 0.06973,0.12619 0.02989,0.0631 0.03321,0.10293 z m 3.327218,1.84956 q 0,0.1129 -0.01992,0.22248 -0.01992,0.10958 -0.01992,0.21252 0,0.0664 0.01,0.13282 0.01,0.0631 0.01,0.12618 0,0.0133 -0.01328,0.0565 -0.01328,0.0432 -0.04317,0.0963 -0.02656,0.0531 -0.07305,0.10626 -0.04317,0.0498 -0.102938,0.0731 -0.03985,0.0166 -0.09298,0.0199 -0.04981,0.003 -0.109579,0.007 -0.05645,0 -0.119541,0.003 -0.05977,0 -0.119541,0.01 -0.08301,0.0166 -0.146105,0.0365 -0.05977,0.0199 -0.126182,0.0199 -0.119541,0 -0.182632,-0.0631 -0.05977,-0.0664 -0.08966,-0.16271 -0.02656,-0.0963 -0.03321,-0.20256 -0.0066,-0.10625 -0.01328,-0.19259 -0.01,-0.1129 -0.02657,-0.19591 -0.0166,-0.0863 -0.02324,-0.16271 0,-0.0465 0.0033,-0.0863 0.0066,-0.0398 0.0066,-0.0764 0,-0.0863 -0.01,-0.15939 -0.01,-0.0764 -0.04317,-0.1295 -0.03321,-0.0531 -0.102938,-0.083 -0.06641,-0.0299 -0.179311,-0.0299 -0.07969,0 -0.17267,0.0232 -0.09298,0.0199 -0.17267,0.0664 -0.07969,0.0465 -0.132823,0.11622 -0.05313,0.0697 -0.05313,0.1627 0,0.0365 0.01328,0.0797 0.0166,0.0432 0.0166,0.0963 0,0.093 -0.02324,0.19259 -0.01992,0.0963 -0.01992,0.18595 0,0.13947 0.01992,0.25901 0.02324,0.11954 0.02324,0.20587 0,0.11622 -0.01328,0.20256 -0.01,0.0863 -0.04317,0.14278 -0.03321,0.0564 -0.0963,0.0863 -0.05977,0.0299 -0.156067,0.0299 -0.152747,0 -0.235761,-0.073 -0.08301,-0.0731 -0.08301,-0.2258 0,-0.0564 0.0033,-0.11622 0.0033,-0.0631 0.0033,-0.1295 0,-0.0897 -0.01992,-0.14943 -0.01992,-0.0598 -0.04981,-0.11622 -0.02657,-0.0564 -0.05977,-0.11954 -0.02989,-0.0664 -0.05313,-0.16603 -0.0066,-0.01 -0.0066,-0.0232 0,-0.0133 0,-0.0299 0,-0.0365 0.0033,-0.083 0.0033,-0.0498 0.0033,-0.0996 0,-0.13282 -0.0166,-0.28557 -0.0166,-0.15275 -0.03985,-0.31213 -0.01992,-0.15939 -0.03653,-0.31214 -0.0166,-0.15606 -0.0166,-0.29553 0,-0.12286 0.05313,-0.20255 0.05313,-0.0797 0.136144,-0.12619 0.08301,-0.0465 0.182632,-0.0631 0.09962,-0.0166 0.192593,-0.0166 0.179311,0 0.28557,0.0963 0.109579,0.093 0.109579,0.23244 0,0.0465 -0.0066,0.0996 -0.0066,0.0498 -0.0066,0.10293 0,0.0365 0.01,0.083 0.01328,0.0465 0.04981,0.0465 0.03653,0 0.122861,-0.0233 0.08966,-0.0266 0.185952,-0.0598 0.09962,-0.0332 0.182632,-0.0598 0.08301,-0.0266 0.109579,-0.0332 0.126182,-0.0232 0.219158,-0.0199 0.09298,0.003 0.17267,-0.0232 0.07637,-0.0199 0.122861,-0.0399 0.04981,-0.0199 0.08966,-0.0365 0.04317,-0.0166 0.08633,-0.0266 0.04649,-0.01 0.11622,-0.01 0.1129,0 0.162708,0.0266 0.05313,0.0232 0.07969,0.0631 0.02656,0.0365 0.04317,0.083 0.0166,0.0465 0.05645,0.0897 0.04981,0.0564 0.102938,0.093 0.05645,0.0365 0.09962,0.0697 0.04649,0.0332 0.07305,0.0731 0.02989,0.0399 0.02989,0.0996 0,0.0465 -0.01328,0.0963 -0.01328,0.0498 -0.01328,0.11954 0,0.0863 0.01992,0.18263 0.01992,0.0963 0.01992,0.19259 z m 4.004614,-0.95964 q 0.0066,0.0432 0.01,0.093 0.0033,0.0465 0.0033,0.0963 0,0.11954 -0.0066,0.26565 -0.0033,0.14278 -0.01992,0.28557 -0.0166,0.13946 -0.04981,0.26564 -0.02989,0.12618 -0.08633,0.21252 -0.03653,0.0565 -0.106258,0.10294 -0.06973,0.0432 -0.149426,0.083 -0.07637,0.0399 -0.152747,0.0797 -0.07305,0.0398 -0.11622,0.0863 -0.01,0.0133 -0.02657,0.0432 -0.0166,0.0266 -0.03653,0.0564 -0.01992,0.0299 -0.03653,0.0565 -0.0166,0.0266 -0.02656,0.0365 -0.03985,0.0266 -0.129502,0.0631 -0.08966,0.0332 -0.195914,0.0631 -0.106259,0.0299 -0.215838,0.0498 -0.109579,0.0199 -0.182631,0.0199 -0.06641,0 -0.119541,-0.007 -0.05313,-0.007 -0.1129,-0.0233 -0.05645,-0.0199 -0.129502,-0.0498 -0.06973,-0.0299 -0.17267,-0.0764 -0.02656,-0.01 -0.102938,-0.0365 -0.07305,-0.0266 -0.159388,-0.0531 -0.08301,-0.0299 -0.159387,-0.0498 -0.07305,-0.0233 -0.0963,-0.0233 -0.02989,0 -0.04317,0.0465 -0.01,0.0465 -0.01,0.0897 0,0.093 0.02324,0.20255 0.02324,0.10626 0.02324,0.17599 0,0.0365 -0.02324,0.0863 -0.01992,0.0498 -0.05977,0.0963 -0.03653,0.0465 -0.09298,0.0764 -0.05313,0.0332 -0.122861,0.0332 -0.06641,0 -0.132823,-0.0199 -0.06641,-0.0166 -0.122861,-0.0432 -0.05645,-0.0299 -0.09962,-0.0664 -0.04317,-0.0365 -0.05977,-0.0731 -0.01992,-0.0432 -0.02989,-0.1129 -0.0066,-0.0697 -0.01,-0.14943 -0.0033,-0.083 -0.01,-0.17267 -0.0033,-0.0896 -0.01328,-0.16935 -0.0166,-0.10626 -0.04981,-0.20255 -0.02989,-0.0963 -0.03653,-0.15939 0,-0.0664 0.01992,-0.1295 0.01992,-0.0664 0.01992,-0.14279 0,-0.15939 -0.0166,-0.3387 -0.01328,-0.17931 -0.04317,-0.3553 -0.02324,-0.10294 -0.06309,-0.21252 -0.03985,-0.10957 -0.03985,-0.22247 0,-0.0299 0.01,-0.0598 0.01,-0.0299 0.01,-0.0564 0,-0.0797 -0.03321,-0.17599 -0.02989,-0.0996 -0.05645,-0.19592 -0.01,-0.0531 -0.01328,-0.11954 0,-0.0664 -0.02656,-0.15275 -0.0166,-0.0498 -0.04649,-0.0996 -0.02989,-0.0531 -0.06309,-0.10626 -0.03321,-0.0564 -0.05645,-0.1129 -0.02324,-0.0598 -0.02324,-0.1295 0,-0.0332 0.0033,-0.0631 0.0033,-0.0299 0.0033,-0.0598 0,-0.0664 -0.0166,-0.12951 -0.0166,-0.0631 -0.03653,-0.12286 -0.02324,-0.0631 -0.03985,-0.12286 -0.0166,-0.0631 -0.0166,-0.1295 0,-0.26897 0.08301,-0.41507 0.08302,-0.14943 0.212517,-0.21916 0.129503,-0.0697 0.28557,-0.083 0.156067,-0.0166 0.302172,-0.0166 0.07969,0 0.149426,0.0365 0.07305,0.0332 0.126182,0.0863 0.05645,0.0531 0.08633,0.11954 0.03321,0.0664 0.03321,0.12618 v 0.11622 0.0465 q 0.01,0.093 0.0166,0.23576 0.0066,0.14279 0.0066,0.3055 0.0033,0.15938 0.0066,0.32209 0.0066,0.16271 0.01328,0.29553 0.01,0.12951 0.02656,0.21252 0.0166,0.083 0.04649,0.083 0.05313,0 0.07637,-0.01 0.02324,-0.0133 0.03653,-0.0299 0.01328,-0.0166 0.02324,-0.0365 0.01328,-0.0199 0.04649,-0.0399 0.02656,-0.01 0.05645,-0.01 0.02989,0 0.04649,-0.01 0.06309,-0.0399 0.109579,-0.0764 0.04981,-0.0399 0.09298,-0.0697 0.04649,-0.0299 0.08966,-0.0498 0.04317,-0.0199 0.0963,-0.0199 0.06973,0 0.109579,-0.0166 0.03985,-0.0166 0.06309,-0.0332 0.02656,-0.0199 0.04317,-0.0365 0.01992,-0.0166 0.04981,-0.0166 0.01992,0 0.04317,0.003 0.02324,0.003 0.04981,0.003 0.03985,0 0.07637,-0.0133 0.03653,-0.0133 0.06641,-0.0299 0.02989,-0.0166 0.05313,-0.0299 0.02656,-0.0133 0.04317,-0.0166 0.05977,0 0.129502,0.0332 0.07305,0.0299 0.146105,0.0764 0.07637,0.0432 0.146106,0.0897 0.06973,0.0465 0.122861,0.0797 0.02324,0.0166 0.07305,0.0332 0.04981,0.0133 0.112899,0.0332 0.06309,0.0199 0.126182,0.0498 0.06641,0.0299 0.119541,0.0764 0.05645,0.0432 0.08966,0.10626 0.03653,0.0631 0.03653,0.15275 0,0.0697 0.02656,0.13614 0.02657,0.0631 0.05977,0.12618 0.03321,0.0631 0.06641,0.12619 0.03321,0.0598 0.04981,0.12618 z m -1.26514,0.0631 q -0.01,-0.19592 -0.136143,-0.28889 -0.126182,-0.093 -0.305493,-0.093 -0.08966,0 -0.156067,0.0199 -0.06641,0.0199 -0.132823,0.0531 -0.06309,0.0332 -0.132823,0.0764 -0.06973,0.0399 -0.162709,0.083 -0.06973,0.0399 -0.139464,0.0664 -0.06973,0.0266 -0.126182,0.0564 -0.05313,0.0299 -0.08966,0.0697 -0.03321,0.0398 -0.03321,0.10625 0,0.0863 0.03321,0.17932 0.03653,0.0897 0.03653,0.19259 0,0.0266 -0.0033,0.0564 -0.0033,0.0266 -0.01,0.0531 0.02989,0.007 0.05977,0.01 0.02989,0.003 0.06309,0.003 0.132823,0 0.252364,-0.0365 0.122861,-0.0398 0.22912,-0.0664 0.166029,-0.0398 0.302172,-0.0598 0.139464,-0.0199 0.239082,-0.0631 0.09962,-0.0465 0.156067,-0.13946 0.05645,-0.093 0.05645,-0.27893 z m 4.688654,0.24904 q 0.0066,0.0764 0.01,0.15607 0.0033,0.0764 0.0033,0.15939 0,0.23576 -0.02324,0.47816 -0.02324,0.23908 -0.05313,0.46488 -0.01,0.073 -0.02656,0.14943 -0.01328,0.073 -0.01328,0.1295 0,0.12286 0.02324,0.23908 0.02324,0.1129 0.02324,0.2092 0,0.0199 -0.02656,0.0896 -0.02656,0.0697 -0.08633,0.14279 -0.05645,0.073 -0.149426,0.1295 -0.08966,0.0598 -0.219158,0.0598 -0.149426,0 -0.202555,-0.0863 -0.04981,-0.0863 -0.04981,-0.21915 0,-0.093 0.0166,-0.19924 0.0166,-0.10958 0.03653,-0.22248 -0.07637,0.0166 -0.152746,0.0631 -0.07305,0.0465 -0.139465,0.0863 -0.146105,0.0863 -0.29221,0.18263 -0.142785,0.0963 -0.312134,0.17599 -0.16935,0.0797 -0.371905,0.13282 -0.199235,0.0531 -0.458239,0.0531 -0.0066,0 -0.05313,0 -0.04317,0.003 -0.102938,0 -0.05977,-0.003 -0.126181,-0.0166 -0.06309,-0.0133 -0.1129,-0.0432 -0.07305,-0.073 -0.142785,-0.18263 -0.06641,-0.10626 -0.119541,-0.20919 -0.04981,-0.10626 -0.07969,-0.18596 -0.02989,-0.0797 -0.02989,-0.0963 -0.0066,-0.0166 -0.0066,-0.0299 0,-0.0166 0,-0.0332 0,-0.0697 0.01,-0.14279 0.01,-0.0764 0.02324,-0.14278 0.01328,-0.0697 0.02324,-0.11622 0.01,-0.0498 0.01,-0.0664 0,-0.083 -0.01328,-0.15938 -0.01328,-0.0797 -0.01328,-0.17267 0,-0.0432 0.0033,-0.0897 0.0066,-0.0498 0.02324,-0.10294 0,-0.003 0.0166,-0.0432 0.0166,-0.0399 0.03653,-0.0863 0.02324,-0.0465 0.04317,-0.0896 0.02324,-0.0432 0.03321,-0.0498 0.02324,-0.0199 0.06309,-0.0332 0.03985,-0.0133 0.08966,-0.0266 0.04981,-0.0133 0.09962,-0.0266 0.05313,-0.0133 0.102938,-0.0365 0.07637,-0.0365 0.136144,-0.093 0.06309,-0.0564 0.112899,-0.0764 0.03321,-0.0166 0.08966,-0.0266 0.05977,-0.01 0.122861,-0.0365 0.04317,-0.0133 0.106258,-0.0365 0.06309,-0.0266 0.132823,-0.0465 0.07305,-0.0232 0.146106,-0.0399 0.07305,-0.0199 0.139464,-0.0266 0.02989,0 0.07305,0.01 0.04649,0.01 0.109579,0.01 0.04649,0 0.112899,-0.0199 0.06641,-0.0199 0.159388,-0.0199 0.09298,0 0.179311,0.0133 0.08634,0.0133 0.132823,0.0133 0.03653,0 0.04317,-0.0199 0.01,-0.0233 0.01,-0.0531 0,-0.0498 -0.01992,-0.11622 -0.01992,-0.0664 -0.04649,-0.12951 -0.02657,-0.0631 -0.04981,-0.10957 -0.02324,-0.0465 -0.03321,-0.0598 -0.04981,-0.0631 -0.112899,-0.0963 -0.05977,-0.0332 -0.109579,-0.0332 -0.05313,0 -0.106259,0.0133 -0.04981,0.0133 -0.112899,0.0133 -0.04649,0 -0.0963,-0.007 -0.04649,-0.007 -0.09298,-0.007 -0.1129,0 -0.262326,0.0564 -0.146105,0.0564 -0.295531,0.12951 -0.146105,0.073 -0.278928,0.13946 -0.129503,0.0631 -0.209197,0.083 -0.04317,0.01 -0.08966,0.0199 -0.04649,0.007 -0.08966,0.007 -0.02656,0 -0.07637,-0.0266 -0.04649,-0.0299 -0.09298,-0.0731 -0.04649,-0.0432 -0.08301,-0.0963 -0.03321,-0.0564 -0.03321,-0.10958 0,-0.0797 0.04317,-0.1295 0.04317,-0.0531 0.106259,-0.0897 0.06309,-0.0365 0.136143,-0.0631 0.07637,-0.0299 0.136144,-0.0664 0.07637,-0.0465 0.179311,-0.10958 0.102938,-0.0631 0.175991,-0.11954 0.07637,-0.0631 0.109579,-0.1129 0.0332,-0.0531 0.07969,-0.0797 0.04649,-0.0266 0.146106,-0.0498 0.09962,-0.0232 0.185952,-0.0498 0.02657,-0.01 0.07305,-0.0299 0.04981,-0.0199 0.09962,-0.0365 0.05313,-0.0166 0.09962,-0.0299 0.04981,-0.0133 0.07637,-0.0133 h 0.01328 q 0.06309,0.0232 0.142785,0.0365 0.07969,0.01 0.166028,0.0199 0.08966,0.01 0.175991,0.0232 0.08966,0.01 0.169349,0.0299 0.02656,0.007 0.04981,0.0299 0.02324,0.0199 0.04981,0.0299 0.122861,0.0365 0.205875,0.0764 0.08301,0.0365 0.146106,0.11954 0.06309,0.0797 0.11622,0.23244 0.05645,0.14943 0.122861,0.40843 0.01328,0.0598 0.04981,0.10958 0.03653,0.0498 0.05313,0.0996 0.02657,0.083 0.03985,0.20255 0.0166,0.11622 0.02324,0.21916 z m -0.796938,0.8866 q 0.0166,-0.0166 0.01992,-0.0731 0.0066,-0.0598 0.0066,-0.13282 0,-0.0863 -0.0033,-0.13946 -0.0033,-0.0564 -0.01328,-0.0863 -0.01,-0.0299 -0.02656,-0.0399 -0.0166,-0.0133 -0.04317,-0.0133 -0.01992,0 -0.03653,0.003 -0.01328,0.003 -0.02656,0.007 -0.01328,0.007 -0.02656,0.01 -0.05313,-0.007 -0.09962,-0.007 -0.04317,0 -0.08966,0 -0.09298,0 -0.17267,0.01 -0.07637,0.01 -0.152746,0.0266 -0.07305,0.0166 -0.146106,0.0365 -0.07305,0.0199 -0.156067,0.0365 -0.119541,0.0299 -0.219158,0.0399 -0.09962,0.01 -0.17267,0.0399 -0.07305,0.0299 -0.112899,0.0963 -0.03985,0.0631 -0.03985,0.19924 0,0.13946 0.07305,0.18927 0.07305,0.0465 0.212517,0.0465 0.04317,0 0.09962,-0.0133 0.05645,-0.0166 0.119541,-0.0365 0.06641,-0.0199 0.132823,-0.0399 0.06973,-0.0232 0.139464,-0.0398 0.04981,-0.01 0.106259,-0.0199 0.05977,-0.0133 0.11622,-0.0232 0.05977,-0.01 0.109579,-0.0199 0.05313,-0.01 0.08966,-0.0166 0.02324,-0.003 0.07305,-0.007 0.04981,-0.007 0.09962,-0.01 0.04981,-0.007 0.08965,-0.01 0.04317,-0.007 0.04981,-0.0133 z m 4.197208,-1.02938 q -0.0066,0.0498 -0.01992,0.14278 -0.01328,0.093 -0.02656,0.18595 -0.01328,0.093 -0.02324,0.16603 -0.01,0.0697 -0.01328,0.0764 -0.0166,0.0365 -0.05977,0.0764 -0.04317,0.0399 -0.06973,0.0963 -0.01,0.0266 -0.0066,0.0664 0.0033,0.0398 -0.01328,0.0764 -0.0066,0.0266 -0.02989,0.0432 -0.02324,0.0166 -0.02989,0.0432 -0.04649,0.13946 -0.08966,0.31545 -0.04317,0.17599 -0.08302,0.34866 -0.03985,0.16935 -0.08301,0.31878 -0.03985,0.14942 -0.07969,0.23576 -0.0166,0.0332 -0.04317,0.0598 -0.02656,0.0299 -0.05977,0.0598 -0.02989,0.0299 -0.05977,0.0598 -0.02989,0.0332 -0.04649,0.0731 -0.01,0.0199 -0.0166,0.0631 -0.0066,0.0432 -0.02324,0.0797 -0.01328,0.0266 -0.02657,0.0432 -0.01328,0.0199 -0.02656,0.0365 -0.01,0.0166 -0.0166,0.0332 -0.0066,0.0166 -0.0066,0.0432 0,0.0199 0.0033,0.0365 0.0033,0.0166 0.0033,0.0365 0,0.0531 -0.04981,0.1129 -0.04981,0.0598 -0.132823,0.11622 -0.07969,0.0565 -0.185952,0.10957 -0.106259,0.0531 -0.219158,0.093 -0.109579,0.0399 -0.219158,0.0631 -0.106259,0.0233 -0.192594,0.0233 -0.129502,0 -0.298852,-0.0764 -0.169349,-0.0764 -0.335378,-0.18595 -0.162708,-0.10626 -0.302172,-0.21916 -0.136144,-0.10958 -0.205876,-0.17931 -0.01,-0.01 -0.02656,-0.0664 -0.01328,-0.0531 -0.05645,-0.10294 -0.03653,-0.0399 -0.07305,-0.0631 -0.03653,-0.0199 -0.05313,-0.0399 -0.06309,-0.10625 -0.06309,-0.20255 0,-0.0764 0.03321,-0.17931 0.02989,-0.10626 0.08633,-0.21916 0.05645,-0.11622 0.129502,-0.2258 0.07637,-0.10958 0.162708,-0.19591 0.08633,-0.0897 0.179311,-0.14279 0.09298,-0.0564 0.185953,-0.0564 0.07969,0 0.149426,0.0365 0.07305,0.0365 0.129502,0.1129 0.0166,0.0299 0.02324,0.0863 0.0066,0.0531 0.03653,0.10294 0.02656,0.0465 0.07969,0.083 0.05313,0.0365 0.08301,0.0863 0.05313,0.073 0.07305,0.14943 0.01992,0.0764 0.05645,0.12286 0.02656,0.0332 0.06641,0.0764 0.03985,0.0399 0.08301,0.0764 0.04317,0.0332 0.08633,0.0564 0.04317,0.0232 0.07637,0.0232 0.04649,-0.007 0.07969,-0.0531 0.03321,-0.0498 0.05977,-0.10958 0.02989,-0.0598 0.04981,-0.11954 0.02324,-0.0631 0.04317,-0.0996 0.01328,-0.0266 0.04317,-0.073 0.03321,-0.0498 0.06641,-0.10294 0.03321,-0.0564 0.05645,-0.10958 0.02324,-0.0564 0.02324,-0.0963 0,-0.0432 -0.05313,-0.073 -0.05313,-0.0332 -0.132823,-0.0598 -0.07637,-0.0299 -0.162708,-0.0531 -0.08634,-0.0266 -0.152747,-0.0631 -0.202555,-0.10626 -0.322095,-0.22248 -0.119541,-0.11622 -0.199235,-0.2424 -0.07969,-0.1295 -0.142785,-0.27229 -0.06309,-0.1461 -0.152746,-0.31213 -0.02657,-0.0465 -0.06309,-0.0897 -0.03653,-0.0432 -0.06641,-0.0996 -0.03321,-0.0565 -0.05977,-0.10626 -0.02324,-0.0498 -0.04649,-0.0996 -0.01992,-0.0498 -0.04649,-0.10626 -0.02324,-0.0598 -0.05977,-0.1295 -0.02324,-0.0432 -0.05645,-0.0963 -0.02989,-0.0531 -0.05977,-0.10958 -0.02989,-0.0598 -0.05313,-0.11622 -0.01992,-0.0598 -0.01992,-0.1129 0,-0.10625 0.07305,-0.15938 0.07305,-0.0531 0.159388,-0.0531 0.11622,0 0.195914,0.0531 0.07969,0.0498 0.142785,0.13614 0.06641,0.083 0.126181,0.19259 0.06309,0.10958 0.146106,0.2258 0.03985,0.0531 0.08633,0.0897 0.04649,0.0365 0.09962,0.0664 0.05645,0.0266 0.11622,0.0531 0.05977,0.0266 0.119541,0.0598 0.02656,0.0232 0.04981,0.0565 0.02324,0.0332 0.05313,0.0531 0.03653,0.0199 0.08301,0.0332 0.04649,0.0133 0.06641,0.0299 0.04981,0.0498 0.09962,0.12618 0.05313,0.0764 0.106259,0.15939 0.05313,0.083 0.106258,0.16935 0.05645,0.083 0.1129,0.14942 0.05645,0.0664 0.109579,0.10958 0.05645,0.0398 0.109579,0.0398 0.01,-0.003 0.01992,-0.0531 0.01328,-0.0498 0.02324,-0.12286 0.01328,-0.0764 0.01992,-0.16603 0.01,-0.093 0.0166,-0.17931 0.01,-0.0863 0.01328,-0.15939 0.0033,-0.073 0.0033,-0.10958 0,-0.0365 -0.01,-0.0963 -0.01,-0.0631 -0.02324,-0.12619 -0.01328,-0.0631 -0.02325,-0.11622 -0.01,-0.0564 -0.01,-0.0764 0.0066,-0.0166 0.0066,-0.0365 0,-0.0232 0,-0.0498 0,-0.0531 -0.0033,-0.1129 -0.0033,-0.0631 -0.0033,-0.0996 0,-0.0764 0.04317,-0.11954 0.04649,-0.0465 0.1129,-0.0764 0.06973,-0.0299 0.149426,-0.0531 0.07969,-0.0266 0.149426,-0.0631 0.02656,-0.0133 0.06973,-0.0299 0.04317,-0.0199 0.08633,-0.0365 0.04649,-0.0166 0.08966,-0.0299 0.04317,-0.0133 0.07305,-0.0133 0.02656,0 0.05313,0.0432 0.02656,0.0399 0.04981,0.10626 0.02324,0.0664 0.04317,0.14611 0.01992,0.0797 0.03321,0.15939 0.0166,0.0797 0.02324,0.1461 0.01,0.0664 0.01,0.10626 0,0.0564 -0.0166,0.13282 -0.01328,0.0764 -0.03321,0.15607 -0.0166,0.0797 -0.03653,0.15275 -0.0166,0.073 -0.02324,0.12286 z"
           id="text1"
           style="font-size:6.80054px;font-family:'Freckle Face';-inkscape-font-specification:'Freckle Face';fill:#c0ffff;stroke-width:0.566714"
           aria-label="Pwnbay" /></g></g></g></svg>
