<?xml version="1.0" encoding="UTF-8" standalone="no"?>
<!-- Created with Inkscape (http://www.inkscape.org/) -->

<svg
   width="32"
   height="32"
   viewBox="0 0 8.4666667 8.4666667"
   version="1.1"
   id="svg1"
   xml:space="preserve"
   sodipodi:docname="icon.svg"
   inkscape:version="1.4 (e7c3feb100, 2024-10-09)"
   xmlns:inkscape="http://www.inkscape.org/namespaces/inkscape"
   xmlns:sodipodi="http://sodipodi.sourceforge.net/DTD/sodipodi-0.dtd"
   xmlns="http://www.w3.org/2000/svg"
   xmlns:svg="http://www.w3.org/2000/svg"><sodipodi:namedview
     id="namedview1"
     pagecolor="#ffffff"
     bordercolor="#000000"
     borderopacity="0.25"
     inkscape:showpageshadow="2"
     inkscape:pageopacity="0.0"
     inkscape:pagecheckerboard="0"
     inkscape:deskcolor="#d1d1d1"
     inkscape:zoom="8.1843461"
     inkscape:cx="11.974078"
     inkscape:cy="35.494589"
     inkscape:window-width="1876"
     inkscape:window-height="1052"
     inkscape:window-x="0"
     inkscape:window-y="0"
     inkscape:window-maximized="1"
     inkscape:current-layer="svg1" /><defs
     id="defs1" /><rect
     style="fill:#111827;fill-opacity:1;stroke:none;stroke-width:8.76501;stroke-linecap:round;stroke-miterlimit:4.1"
     id="rect1"
     width="8.4666662"
     height="8.4666662"
     x="0"
     y="0"
     ry="0"
     inkscape:label="background" /><path
     id="path1-0-5"
     style="display:inline;fill:#c0ffff;fill-opacity:1;stroke-width:0.105305"
     d="m 4.0472033,7.33364 c 0,0 -0.088177,-0.1487648 -0.1088298,-0.269023 C 3.9218015,6.9681221 3.9254265,6.907715 3.8882205,6.8257943 3.8237775,6.6838963 3.7519955,6.6603186 3.6980248,6.6455989 3.6407408,6.5997528 3.4590544,6.9008152 3.3603849,6.8911035 3.3309519,6.8884475 3.160477,6.7748146 3.065376,6.6651279 2.986719,6.5744084 2.9276777,6.4554732 2.8741239,6.405797 2.7679636,6.3073303 2.5590631,6.0883215 2.4480548,5.9944064 2.2041876,5.7880927 2.0465011,5.7232335 1.9737832,5.6583146 1.9176032,5.6081685 1.8936272,5.5534112 1.8754642,5.5029939 1.8518992,5.4375656 1.8265952,5.3611424 1.7880112,5.305267 1.4684253,4.842414 0.96893971,4.0838307 0.96893971,4.0838307 L 1.1980025,3.8112685 c 0,0 0.6154973,-0.7385578 0.8854219,-1.1451851 0.269924,-0.4066272 0.7279134,-1.2895637 0.7279134,-1.2895637 l 0.9344064,0.9395329 c 0,0 0.4659418,-0.6037189 0.6494556,-0.9079897 C 4.5787143,1.1037855 4.8502035,0.50006663 4.8502035,0.50006663 l 0.2251557,0.2866601 c 0,0 0.7560061,1.24760097 1.1057562,1.75229767 0.1934447,0.2791448 0.4675061,0.6207474 0.6669891,0.8880174 0.044384,0.059474 0.062345,0.131498 0.1005278,0.1800299 0.1004922,0.1277204 0.207025,0.2163298 0.207025,0.2163298 l 0.3420692,0.218956 -0.2992517,0.6202117 c 0,0 -0.081059,0.1710922 -0.1441406,0.2784501 -0.00872,0.014818 -0.015804,0.039826 -0.021017,0.053719 -0.00642,0.017135 -0.016765,0.072593 -0.0224,0.1237448 -0.00397,0.035856 -0.019435,0.085778 -0.031384,0.1069475 -0.018419,0.032615 -0.08087,0.097461 -0.094709,0.1330196 -0.022765,0.058482 -0.022625,0.2753874 -0.045595,0.3325525 C 6.7399966,5.9379957 6.6938659,5.944618 6.6496997,5.9883669 6.5384603,6.0985561 6.2282965,6.0299127 5.983298,6.1263285 5.7382996,6.2227375 5.5010792,6.2964021 5.214692,6.5929789 4.928305,6.8895551 4.5825861,7.9665996 4.4451014,7.9665996 4.3419883,7.9551557 4.1536941,7.5498373 4.0472056,7.3336531 c -0.055062,-0.1117769 0,0 0,0 z M 3.6623534,3.652051 3.1610987,3.725153 2.7842416,2.9200555 2.7858316,2.5847113 2.8359376,2.0733328 2.6284125,2.3723773 1.5989347,3.9529939 3.662379,3.6520441 4.1604129,3.7635433 4.8882277,3.5215448 6.7510332,4.1267391 4.4815887,2.5679275 4.4586867,2.1570002 5.2100033,2.6360879 5.3943038,1.9042251 5.0434889,1.5467517 4.8738131,1.0475591 4.0978097,2.3451409 l 0.00158,0.2629829 0.3593006,-0.4511236 0.022902,0.4109273 z"
     inkscape:label="theValley" /></svg>
